<?xml version="1.0" ?><!DOCTYPE svg  PUBLIC '-//W3C//DTD SVG 20010904//EN'  'http://www.w3.org/TR/2001/REC-SVG-20010904/DTD/svg10.dtd'><svg height="512.000000pt" preserveAspectRatio="xMidYMid meet" version="1.0" viewBox="0 0 512.000000 512.000000" width="512.000000pt" xmlns="http://www.w3.org/2000/svg"><g fill="#000000" stroke="none" transform="translate(0.000000,512.000000) scale(0.100000,-0.100000)"><path d="M2285 4898 c-311 -35 -683 -165 -955 -333 -220 -137 -472 -361 -622 -555 -256 -331 -417 -712 -480 -1135 -20 -136 -17 -512 5 -655 103 -665 471 -1245 1027 -1616 287 -191 623 -320 966 -371 164 -24 504 -24 668 0 411 61 815 237 1136 494 459 368 764 897 857 1485 25 159 25 537 0 696 -83 524 -329 995 -708 1356 -370 352 -861 581 -1361 635 -114 13 -419 12 -533 -1z m1395 -716 c88 -44 161 -115 202 -199 l33 -68 0 -921 0 -921 -29 -41 c-19 -27 -47 -51 -82 -68 -118 -58 -128 -189 -17 -222 46 -14 100 -64 119 -109 29 -69 12 -162 -38 -210 -67 -64 -51 -63 -667 -63 l-559 0 -4 -167 c-5 -183 -18 -235 -66 -273 -44 -35 -79 -27 -136 33 -28 29 -63 72 -79 95 -31 48 -67 66 -116 58 -42 -7 -60 -23 -112 -102 -79 -121 -164 -137 -216 -41 -14 26 -19 67 -23 212 l-5 180 -170 5 c-168 5 -171 5 -237 38 -106 52 -170 117 -226 230 l-47 95 0 1097 0 1097 39 76 c46 92 112 157 199 197 l62 29 1055 -2 1055 -2 65 -33z"/><path d="M1627 4114 c-4 -4 -7 -405 -7 -890 l0 -883 1083 -3 c595 -2 1090 -7 1100 -12 17 -8 17 29 15 771 l-3 778 -32 65 c-21 42 -48 79 -79 104 -90 76 -18 71 -1100 74 -533 1 -973 -1 -977 -4z m1696 -348 c18 -7 45 -28 60 -46 l28 -33 -3 -233 c-3 -232 -3 -232 -28 -260 -51 -55 -41 -54 -683 -54 l-594 0 -34 23 c-63 42 -69 67 -69 301 0 193 2 211 21 246 40 71 16 69 677 69 479 1 599 -2 625 -13z"/><path d="M2110 3660 c-7 -12 -9 -89 -8 -207 l3 -187 25 -13 c19 -10 153 -13 580 -13 487 0 558 2 578 16 21 15 22 20 22 200 0 109 -4 193 -10 205 -10 18 -28 19 -595 19 -572 0 -585 0 -595 -20z"/><path d="M1461 4079 c-57 -35 -97 -78 -127 -138 l-29 -56 -3 -745 c-2 -410 0 -796 3 -859 l7 -114 32 35 c33 38 108 92 150 108 l26 10 0 890 c0 705 -3 890 -12 890 -7 0 -29 -10 -47 -21z"/><path d="M1580 2224 c-145 -39 -238 -147 -271 -313 -25 -128 12 -243 111 -342 56 -56 75 -68 135 -88 60 -19 88 -21 200 -19 l130 3 0 90 0 90 -137 5 c-154 6 -168 11 -223 89 -26 37 -30 52 -30 104 1 69 24 124 70 167 l27 25 1076 5 c592 3 1085 9 1094 13 24 12 58 69 58 97 0 12 -15 37 -34 56 l-34 34 -1058 -1 c-899 0 -1067 -3 -1114 -15z"/><path d="M1621 1914 c-38 -48 -22 -133 28 -154 16 -6 71 -10 131 -8 l105 3 3 93 3 92 -125 0 c-123 0 -125 0 -145 -26z"/><path d="M1992 1483 c2 -331 6 -458 14 -458 6 0 31 29 56 65 57 84 111 120 186 127 95 8 161 -41 248 -183 10 -16 14 -17 25 -6 11 10 15 101 17 462 l3 450 -276 0 -275 0 2 -457z"/><path d="M2642 1848 l3 -93 488 -3 489 -2 -9 32 c-10 43 -7 112 7 138 11 20 10 20 -485 20 l-496 0 3 -92z"/><path d="M2640 1555 l0 -95 555 0 554 0 36 31 c39 35 45 69 19 109 -35 52 -11 50 -606 50 l-558 0 0 -95z"/></g></svg>